<?xml version="1.0" standalone="no"?>
<!DOCTYPE svg PUBLIC "-//W3C//DTD SVG 20010904//EN"
 "http://www.w3.org/TR/2001/REC-SVG-20010904/DTD/svg10.dtd">
<svg version="1.0" xmlns="http://www.w3.org/2000/svg"
 width="320.000000pt" height="320.000000pt" viewBox="0 0 320.000000 320.000000"
 preserveAspectRatio="xMidYMid meet">
<metadata>
Created by potrace 1.14, written by Peter Selinger 2001-2017
</metadata>
<g transform="translate(0.000000,320.000000) scale(0.100000,-0.100000)"
fill="#000000" stroke="none">
<path d="M0 1600 l0 -1600 1600 0 1600 0 0 1600 0 1600 -1600 0 -1600 0 0
-1600z m2332 962 c47 -24 97 -65 196 -162 73 -72 147 -154 166 -183 120 -189
111 -433 -22 -613 -16 -23 -111 -114 -210 -203 -100 -88 -183 -165 -186 -170
-3 -4 3 -27 14 -49 22 -46 26 -116 7 -149 -13 -23 -52 -56 -79 -66 -16 -6 -16
-9 4 -44 67 -113 -16 -253 -142 -241 -27 3 -61 15 -79 28 -18 12 -34 21 -35
19 -2 -2 -9 -14 -15 -27 -31 -60 -132 -80 -206 -42 -30 15 -41 17 -44 8 -2 -7
-21 -30 -41 -51 -35 -34 -42 -37 -94 -37 -68 0 -111 17 -150 59 -35 37 -46 38
-72 10 -44 -49 -126 -64 -183 -34 -38 19 -81 71 -88 107 -4 22 -10 27 -22 22
-85 -35 -150 -24 -204 35 -48 53 -58 114 -29 173 22 43 21 58 -3 58 -20 0 -74
48 -91 82 -30 57 -14 150 30 187 9 8 16 17 16 21 0 5 -65 78 -143 164 -152
164 -202 240 -228 346 -19 76 -16 222 5 294 47 162 162 317 293 400 125 78
337 101 479 52 117 -40 162 -72 291 -204 112 -116 123 -125 140 -111 10 8 97
80 193 160 97 80 187 152 200 159 55 30 107 40 187 37 67 -3 92 -9 145 -35z"/>
<path d="M884 2495 c-119 -26 -214 -87 -290 -188 -91 -121 -134 -239 -134
-367 0 -125 42 -226 141 -336 175 -195 838 -889 887 -927 12 -11 40 -21 61
-24 50 -7 81 21 81 73 0 39 -1 40 -238 286 -72 74 -93 102 -90 120 2 14 11 24
24 26 16 2 70 -47 230 -213 227 -235 256 -256 308 -221 29 19 41 52 29 83 -4
12 -100 119 -213 238 -113 120 -209 224 -213 232 -9 15 8 43 27 43 6 1 135
-126 286 -280 259 -264 277 -280 311 -280 45 0 79 34 79 78 0 37 -16 55 -332
384 -156 162 -199 213 -196 230 8 54 37 32 244 -180 112 -115 219 -217 239
-226 30 -15 38 -15 69 -2 85 36 54 97 -151 302 -213 212 -448 434 -460 434 -5
0 -48 -36 -95 -79 -143 -131 -270 -233 -318 -255 -27 -12 -67 -20 -101 -20
-47 -1 -62 4 -94 28 -54 42 -70 87 -55 154 7 31 23 67 40 85 15 18 150 133
299 256 l270 224 -87 95 c-107 117 -145 150 -213 184 -111 56 -222 70 -345 43z"/>
</g>
</svg>
